<svg t="1736248589848" class="icon" viewBox="0 0 1024 1024" version="1.1" xmlns="http://www.w3.org/2000/svg" p-id="7153" width="200" height="200"><path d="M705.68750001 672.40625c-48.9375 52.6875-121.21875 82.96875-198.37500001 82.96875-72.5625 0-142.03125-27.375-190.59374999-75-6.84375-6.65625-17.8125-6.65625-24.46875 0.28125-6.65625 6.84375-6.5625 17.8125 0.28125 24.46875 54.9375 53.90625 133.3125 84.9375 214.875 84.9375 86.71875 0 168.28125-34.3125 223.78124999-94.03125 6.46875-7.03125 6.09375-17.90625-0.9375-24.46875-7.125-6.5625-18-6.1875-24.56249999 0.84375zM233.75000001 546.78125c9.5625 0 17.34375-7.78125 17.34374999-17.34375 0-26.71875 5.53125-52.3125 15.28125001-76.21875 1.59375-2.15625 2.625-4.6875 3.09375-7.40625C307.25 362.5625 399.5 303.5 507.3125 303.5c141.28125 0 256.21875 101.34375 256.21875 225.9375 0 9.5625 7.78125 17.34375 17.34375 17.34375s17.34375-7.78125 17.34375001-17.34375c0-29.90625-5.90625-58.59375-16.40625001-85.40625 24-159.84375-29.15625-235.3125-31.40624999-238.40625-4.40625-6.09375-12.28125-8.625-19.50000001-6.1875-34.96875 11.625-107.25 78.375-115.40625 85.875-0.65625 0.5625-0.9375 1.3125-1.40625 1.96875-33.09375-11.71875-69-18.375-106.78125-18.375-36.9375 0-72.1875 6.46875-104.71875 17.71875-0.375-0.375-0.5625-0.9375-0.93749999-1.3125-8.15625-7.59375-80.4375-74.25-115.40625001-85.875-7.21875-2.4375-15 0.09375-19.5 6.1875-2.25 3.09375-54.28125 77.15625-31.96875 233.8125-11.625 28.125-18.28125 58.40625-18.28125 90.09375 0 9.46875 7.6875 17.25 17.25000001 17.25z m495.46874999-308.34375c10.21875 21.5625 27.46875 71.4375 23.15625001 151.3125-25.96875-36.375-61.5-66.65625-103.68750001-87.84375 24.28125-21.84375 58.40625-50.25 80.53125-63.46875z m-441.28125 0c21.9375 13.03125 55.3125 40.875 79.59375 62.625-41.53125 20.53125-76.875 49.875-102.9375 85.21875-3.65625-77.90625 13.3125-126.75 23.34375-147.84375zM315.125 575.1875c-0.9375-9.46875-9.1875-16.6875-18.84375-15.5625l-136.21874999 12.9375c-9.46875 0.9375-16.5 9.375-15.56250001 18.84375 0.84375 9 8.34375 15.65625 17.15625 15.65625 0.5625 0 1.125 0 1.6875-0.09375l136.21875001-12.9375c9.46875-0.9375 16.40625-9.375 15.56249999-18.84375zM334.15625001 626.5625c-3.5625-8.8125-13.6875-13.125-22.5-9.46875l-132.75 54.09375c-8.8125 3.5625-13.125 13.6875-9.46875001 22.5 2.71875 6.75 9.1875 10.78125 16.03125 10.78125 2.15625 0 4.40625-0.375 6.5625-1.3125l132.75-54.09375c8.71875-3.5625 12.9375-13.6875 9.37500001-22.5zM860.75 572.5625l-136.21874999-12.9375c-9.65625-1.125-18 6.09375-18.84375 15.5625-0.9375 9.46875 6.09375 18 15.56249999 18.84375l136.21875 12.9375c0.5625 0.09375 1.125 0.09375 1.6875 0.09375 8.8125 0 16.3125-6.75 17.15625-15.65625 0.9375-9.46875-6-17.90625-15.5625-18.84375zM841.81250001 671.09375L709.15625 617c-8.8125-3.65625-18.9375 0.5625-22.5 9.46875-3.65625 8.8125 0.65625 18.9375 9.46875001 22.5L828.87500001 703.0625c2.15625 0.84375 4.3125 1.3125 6.56249999 1.3125 6.84375 0 13.3125-4.03125 16.03125-10.78125 3.46875-8.8125-0.75-18.9375-9.65624999-22.5z" fill="#8a8a8a" p-id="7154"></path><path d="M454.0625 465.59375c0-18.09375-15.75-32.8125-35.24999999-32.8125-19.40625 0-35.25 14.625-35.25000001 32.8125 0 18.09375 15.75 32.8125 35.25000001 32.8125s35.25-14.71875 35.24999999-32.8125zM640.43750001 465.59375c0-18.09375-15.75-32.8125-35.25000001-32.8125-19.40625 0-35.25 14.625-35.25 32.8125 0 18.09375 15.75 32.8125 35.25 32.8125s35.25-14.71875 35.25000001-32.8125zM468.03125001 665c17.90625 0 32.34375-12.09375 42.09374999-27.46875 9.65625 15.28125 24.09375 27.46875 42.00000001 27.46875 30.28125 0 55.03125-24.09375 55.03124999-53.8125 0-7.125-5.8125-12.9375-12.9375-12.9375-7.125 0-12.9375 5.8125-12.9375 12.9375 0 15.375-13.03125 27.84375-29.0625 27.84375-14.0625 0-29.0625-24.75-29.06249999-42.09375 0-7.125-5.8125-12.9375-12.9375-12.9375-7.125 0-12.9375 5.8125-12.9375 12.9375 0 17.4375-15 42.09375-29.06250001 42.09375-16.03125 0-29.0625-12.46875-29.0625-27.84375 0-7.125-5.8125-12.9375-12.9375-12.9375s-12.9375 5.8125-12.9375 12.9375c-0.28125 29.71875 24.375 53.8125 54.75000001 53.8125z" fill="#8a8a8a" p-id="7155"></path></svg>