<svg t="1736419648446" class="icon" viewBox="0 0 1024 1024" version="1.1" xmlns="http://www.w3.org/2000/svg" p-id="5134" width="200" height="200"><path d="M512 64C213.3 64 64 213.4 64 512s149.3 448 448 448 448-149.3 448-448c0-298.6-149.3-448-448-448z m0 803.2c-236.8 0-355.3-118.4-355.3-355.2 0-236.9 118.4-355.3 355.3-355.3S867.3 275.1 867.3 512c-0.1 236.8-118.5 355.2-355.3 355.2z m3-441.7c-32.9 0-59.5 26.7-59.5 59.5v226.4c0 32.9 26.6 59.5 59.5 59.5s59.5-26.6 59.5-59.5V485c0-32.9-26.6-59.5-59.5-59.5z m0-187c-32.9 0-59.5 26.6-59.5 59.5v17c0 32.9 26.6 59.5 59.5 59.5s59.5-26.6 59.5-59.5v-17c0-32.9-26.6-59.5-59.5-59.5z" fill="#040000" p-id="5135"></path></svg>